<svg width="712" height="307" viewBox="0 0 712 307" fill="none" xmlns="http://www.w3.org/2000/svg">
<path d="M221.7 146.726C220.343 146.543 219.101 147.513 218.927 148.894C218.753 150.274 219.713 151.542 221.071 151.725L221.386 149.225L221.7 146.726ZM233.615 161.71L236.046 161.231L236.046 161.231L233.615 161.71ZM230.42 171.855C229.591 172.959 229.803 174.542 230.892 175.391C231.981 176.239 233.536 176.032 234.365 174.927L232.393 173.391L230.42 171.855ZM221.386 149.225L221.071 151.725C223.065 151.994 224.185 152.633 226.783 154.657L228.284 152.657L229.785 150.658C227.006 148.493 225.025 147.175 221.7 146.726L221.386 149.225ZM228.284 152.657L226.783 154.657C229.574 156.83 230.743 159.921 231.184 162.189L233.615 161.71L236.046 161.231C235.47 158.272 233.884 153.851 229.785 150.658L228.284 152.657ZM233.615 161.71L231.184 162.189C231.493 163.777 231.656 165.824 231.524 167.732C231.384 169.731 230.949 171.15 230.42 171.855L232.393 173.391L234.365 174.927C235.783 173.038 236.308 170.409 236.468 168.112C236.634 165.725 236.435 163.228 236.046 161.231L233.615 161.71Z" fill="#203529"/>
<path d="M150.664 174.336C161.266 174.439 169.351 177.155 174.721 182.664L175.215 183.178C180.241 188.571 182.639 196.161 182.55 205.796C182.501 211.046 181.476 216.164 179.479 221.144L179.477 221.149C177.466 226.085 174.502 230.14 170.581 233.291C166.667 236.486 161.964 238.044 156.529 237.991C154.802 237.974 153.318 237.756 152.123 237.292L152.094 237.28L152.065 237.267C150.962 236.756 149.926 236.12 148.958 235.363C148.012 234.667 147.434 234.473 147.152 234.47C146.744 234.466 146.294 234.661 145.842 235.524L145.403 236.618C142.461 246.117 138.561 253.876 133.676 259.857C128.759 265.878 123.21 268.996 117.037 268.936C111.704 268.884 107.608 266.819 104.917 262.697L104.912 262.69C102.307 258.614 101.051 253.794 101.102 248.273C101.134 244.858 101.703 241.601 102.814 238.509C103.927 235.335 105.468 232.76 107.467 230.833C109.494 228.8 111.871 227.752 114.561 227.778C115.224 227.785 115.778 228.077 116.185 228.559C116.673 228.987 116.928 229.565 116.922 230.22C116.9 232.617 117.556 234.499 118.824 235.952C120.091 237.325 121.659 238.015 123.598 238.034C126.007 238.057 128.691 236.637 131.657 233.364C134.572 230.07 137.083 225.198 139.149 218.676L140.194 215.375C140.64 213.878 141.273 211.798 142.095 209.135C142.92 206.385 143.618 204.103 144.19 202.291C144.791 200.31 145.652 198.722 146.831 197.627C148.037 196.507 149.515 195.96 151.201 195.977C152.782 195.992 154.151 196.371 155.12 197.287C156.103 198.216 156.503 199.534 156.489 201.048C156.482 201.842 156.371 202.701 156.167 203.618L156.161 203.644L156.154 203.668L155.009 207.792C154.096 211.111 153.493 213.382 153.191 214.629L153.279 214.658C152.916 215.857 152.744 216.86 152.737 217.682C152.726 218.781 153.014 219.34 153.365 219.633C153.773 219.972 154.565 220.247 155.956 220.261C157.483 220.275 158.966 219.756 160.425 218.627L160.439 218.616C161.947 217.494 163.221 215.843 164.235 213.607C165.232 211.407 165.763 208.758 165.792 205.632C165.836 200.838 164.565 197.535 162.183 195.483C159.748 193.386 156.032 192.231 150.868 192.18C145.237 192.125 140.673 193.347 137.106 195.77C133.639 198.125 131.855 201.641 131.81 206.482C131.797 207.904 132.088 209.051 132.633 209.968C133.167 210.79 133.711 211.058 134.272 211.063L135.046 211.071L135.233 211.821C135.477 212.798 135.617 213.645 135.611 214.323C135.592 216.403 134.996 218.523 133.874 220.672C132.736 222.852 131.141 224.688 129.102 226.176L129.092 226.182C127.049 227.636 124.681 228.34 122.028 228.314C118.047 228.275 114.923 226.484 112.75 223.036L112.744 223.026C110.628 219.585 109.617 215.481 109.661 210.76C109.723 204.043 111.456 197.891 114.864 192.325C118.273 186.756 123.063 182.345 129.204 179.094L129.208 179.092C135.432 175.832 142.594 174.257 150.664 174.336Z" fill="#203529" stroke="#D9D9D9" stroke-width="2"/>
<path d="M243.928 32.8715C246.102 32.8715 248.126 33.5594 249.551 35.2611C251.069 36.8849 251.546 39.1896 251.546 41.5541C251.546 43.4831 251.244 45.4716 250.671 47.5111L250.672 47.5121C250.198 49.3684 249.345 52.1858 248.134 55.9262C247.757 57.1389 247.152 59.1025 246.318 61.8187L246.315 61.8305L246.311 61.8432C245.492 64.4189 244.747 66.9461 244.077 69.4252C243.656 71.2577 243.471 72.7286 243.471 73.8715C243.471 75.4494 243.761 76.2321 243.989 76.5736C244.184 76.7954 244.345 76.8519 244.611 76.8519C244.87 76.8519 245.848 76.58 247.616 74.6205C249.269 72.7889 251.215 69.9255 253.448 65.9281C253.796 65.2433 254.323 64.6414 255.047 64.224C255.801 63.7895 256.609 63.6439 257.348 63.6439C259.253 63.644 260.844 64.5228 262.058 65.8861C262.719 66.6283 263.225 67.5251 263.417 68.5717C263.608 69.6096 263.456 70.6171 263.09 71.5385L263.092 71.5394L260.818 77.4408C258.387 84.0081 256.282 89.2597 254.506 93.1723C252.671 97.2135 250.448 100.681 247.811 103.532L247.807 103.536C245.056 106.496 241.727 108.127 237.901 108.127C236.898 108.127 236.004 107.905 235.211 107.515C233.104 115.33 230.896 121.763 228.569 126.774L228.568 126.773C225.831 132.759 222.675 137.356 218.997 140.315C215.286 143.301 210.978 144.801 206.171 144.801C199.601 144.801 194.217 142.666 190.391 138.159V138.158C186.555 133.728 184.793 127.741 184.793 120.522C184.793 115.973 185.472 111.929 186.919 108.459C188.181 105.348 189.721 102.817 191.682 101.21C192.087 100.844 192.505 100.506 192.927 100.237C193.324 99.9833 193.929 99.6546 194.663 99.5639C195.27 99.489 195.954 99.5874 196.562 99.9447C194.863 96.9336 194.118 93.1366 194.118 88.766C194.118 80.8129 194.972 73.3931 196.696 66.5189L196.699 66.5033C199.442 55.8653 202.187 47.7417 204.964 42.2523L204.969 42.2426L205.231 41.7396C207.956 36.5906 211.423 32.8717 215.951 32.8715C217.922 32.8715 219.636 33.7294 220.714 35.4486C221.67 36.9726 221.978 38.9379 221.978 40.9916C221.978 43.2066 221.734 45.3794 221.249 47.5062C220.853 49.5613 220.192 52.2998 219.276 55.6947L219.266 55.7299C218.361 58.8966 217.735 61.3148 217.373 63.0111C217.03 64.6235 216.86 66.2287 216.86 67.8295C216.86 69.8144 217.192 70.8099 217.468 71.2269C217.495 71.2678 217.734 71.6527 219.136 71.6527C220.898 71.6527 222.168 71.0766 223.171 69.9711C224.352 68.5722 225.464 66.3449 226.392 63.0892C228.828 53.5042 231.306 46.1805 233.862 41.2475C236.34 36.4634 239.584 32.8716 243.928 32.8715ZM222.961 97.1957C221.855 99.0296 220.604 100.657 219.194 102.06L219.162 102.091C215.988 105.141 212.19 106.722 207.877 106.722C203.907 106.722 200.564 105.107 198.004 102.035C198.05 102.25 198.073 102.445 198.085 102.605C198.352 105.731 199.324 108.024 200.838 109.686C202.351 111.268 204.349 112.12 207.081 112.12C209.777 112.12 212.341 111.19 214.83 109.167L214.862 109.142L214.894 109.118C217.499 107.137 219.693 104.414 221.444 100.868C222.027 99.6853 222.532 98.4611 222.961 97.1957Z" fill="#203529" stroke="#D9D9D9" stroke-width="5"/>
<path d="M182.043 59.4682C186.074 59.4682 189.548 60.5372 192.024 63.0708C194.376 65.4786 195.52 68.5129 195.52 71.9829C195.52 74.4466 195.042 76.7033 193.944 78.6294C192.955 80.4506 191.605 81.9127 189.858 82.8813L189.857 82.8803C188.31 83.7674 186.65 84.2534 184.906 84.2534C183.389 84.2534 181.889 83.9998 180.622 83.2592L180.565 83.226L180.51 83.1899C179.498 82.5238 178.415 81.42 178.283 79.8032L178.271 79.4731L178.277 79.2563C178.339 78.1823 178.855 77.2919 179.337 76.6577C179.635 76.2662 179.832 75.9437 179.956 75.6889L180.007 75.5835L180.033 75.5395C180.037 75.5255 180.045 75.5044 180.051 75.4741C180.076 75.3536 180.1 75.147 180.1 74.8325C180.1 74.7002 180.079 74.6396 180.073 74.6225C180.068 74.6122 180.06 74.5974 180.04 74.5727C180.032 74.5694 180.021 74.5647 180.007 74.56C179.91 74.5278 179.702 74.4829 179.339 74.4829C178.583 74.4829 177.937 74.7607 177.277 75.7407C176.595 76.7761 176.192 78.114 176.192 79.8803C176.192 82.0274 176.835 83.3563 177.861 84.2475C179.087 85.2673 180.685 85.8481 182.839 85.8481C184.861 85.848 186.979 85.3004 189.219 84.1059C191.237 83.0302 192.988 81.4793 194.47 79.3979L194.762 78.9751C195.489 77.8777 196.653 77.1362 198.111 77.1362L198.406 77.145C199.866 77.2313 201.072 77.9533 201.948 79.0229C202.387 79.5297 202.815 80.1902 202.996 81.0073C203.195 81.9043 203.052 82.7951 202.626 83.5717L202.627 83.5727C199.028 90.3825 194.997 95.7262 190.48 99.4721L190.472 99.479L190.464 99.4848C185.903 103.208 180.932 105.177 175.601 105.177C170.487 105.177 166.269 103.448 163.37 99.7387L163.364 99.7299L163.357 99.7221C160.628 96.1673 159.34 91.8029 159.34 86.8012C159.34 82.5323 160.24 78.3185 162.006 74.1772L162.012 74.1635L162.018 74.1508C163.866 69.953 166.493 66.4685 169.909 63.7553C173.428 60.9065 177.504 59.4682 182.043 59.4682Z" fill="#203529" stroke="#D9D9D9" stroke-width="5"/>
<path d="M148.743 59.4682C152.708 59.4683 156.121 60.588 158.534 63.2036C160.808 65.6682 161.901 68.7375 161.901 72.227C161.901 74.7196 161.205 77.1236 159.903 79.4087L159.901 79.4077C159.3 80.507 158.579 81.5092 157.744 82.4155C158.856 81.4565 159.814 80.3352 160.622 79.0434L160.635 79.0239L160.646 79.0044C161.372 77.8909 162.544 77.1362 164.015 77.1362L164.311 77.145C165.735 77.2291 166.916 77.919 167.786 78.9458L167.959 79.1469C168.36 79.6358 168.734 80.256 168.9 81.0073C169.099 81.9015 168.958 82.79 168.535 83.5649C164.936 90.4302 160.901 95.7856 156.369 99.4848C151.865 103.205 146.947 105.177 141.664 105.177C136.551 105.177 132.333 103.448 129.434 99.7387L129.427 99.7299L129.42 99.7221C126.691 96.1673 125.403 91.8029 125.403 86.8012C125.403 82.5202 126.335 78.2971 128.16 74.1508C130.014 69.9409 132.702 66.4554 136.223 63.7466C139.855 60.8958 144.061 59.4682 148.743 59.4682ZM145.8 73.3432C144.899 73.3432 144.334 73.5964 143.906 73.9985C143.439 74.4856 143.289 74.9242 143.289 75.4018C143.289 75.7357 143.368 75.9065 143.486 76.0444C143.571 76.1021 143.841 76.2407 144.527 76.2407C145.367 76.2407 145.861 75.9948 146.238 75.6089C146.833 75.0002 146.959 74.5418 146.959 74.1811C146.959 73.8039 146.864 73.7085 146.794 73.643L146.754 73.6059L146.716 73.5669C146.673 73.5228 146.492 73.3432 145.8 73.3432Z" fill="#203529" stroke="#D9D9D9" stroke-width="5"/>
<path d="M96.2578 28.5291C107.444 28.5292 116.286 31.2585 122.303 37.1629H122.304C128.366 43.0463 131.231 51.3243 131.231 61.6073C131.231 69.8308 129.732 76.9572 126.605 82.8778C123.513 88.7656 119.074 92.5902 113.251 93.9159L113.231 93.9207L113.211 93.9247C112.827 94.0055 112.501 94.0871 112.228 94.1659C112.599 94.591 112.967 95.0634 113.335 95.5741C114.197 96.5611 114.903 97.9289 115.519 99.4637H115.52C116.326 101.467 117.127 102.816 117.86 103.652C118.385 104.193 119.127 104.551 120.36 104.551C121.759 104.551 122.844 104.078 123.778 103.078C125.015 101.732 126.398 99.5784 127.891 96.4803C128.519 95.166 129.748 93.7918 131.757 93.7918L131.956 93.7957C133.957 93.8802 135.321 95.2312 136.174 96.6317C137.163 98.1585 137.574 99.91 137.102 101.732L137.089 101.782L137.073 101.831C134.124 111.554 130.265 120.042 125.469 127.263C120.695 134.449 115.268 138.855 109.065 138.855C105.058 138.855 101.849 136.844 99.5225 133.353L99.501 133.321L99.4805 133.289C97.2677 129.739 96.123 124.661 95.7783 118.372L95.7773 118.362V118.353L95.5752 114.106V114.093L95.5742 114.08C95.3743 108.654 94.9771 104.563 94.4111 101.738C94.1455 100.412 93.7991 99.724 93.5498 99.4129C93.499 99.3495 93.4578 99.3077 93.4268 99.2811C93.4117 99.3177 93.3951 99.3586 93.3779 99.4041C93.2747 99.6778 93.1599 100.054 93.042 100.551L93.0264 100.615C89.6124 113.458 85.0009 124.004 79.124 132.155C73.2653 140.28 66.3457 144.802 58.3379 144.802C52.0238 144.802 47.1006 142.036 43.8867 136.644L43.873 136.621C40.9153 131.535 39.5001 125.463 39.5 118.518C39.5 114.399 40.1087 110.414 41.332 106.575C42.5576 102.73 44.2971 99.5001 46.623 96.9969C49.0452 94.3902 52.0023 92.9422 55.4131 92.9422L55.6611 92.95C55.87 92.9636 56.0707 92.9961 56.2637 93.0418C55.0865 92.0073 54.0488 90.7229 53.1572 89.2059L53.1436 89.1825C50.6637 84.8574 49.4844 79.7354 49.4844 73.9237C49.4845 66.5744 51.4255 59.4151 55.2393 52.4754L55.2441 52.4676L55.249 52.4588C59.1606 45.4706 64.6696 39.7437 71.7266 35.286L71.7363 35.2801C78.9573 30.764 87.1563 28.5291 96.2578 28.5291ZM94.4424 52.4989C90.5653 52.4989 87.3498 53.3168 84.7031 54.8514C81.9547 56.445 79.9354 58.4534 78.5615 60.8641C77.1527 63.3363 76.4697 65.885 76.4697 68.5448C76.4698 70.0892 76.7694 71.24 77.2441 72.1034C77.4703 72.4698 77.6407 72.6173 77.7139 72.6668C77.7624 72.6996 77.7726 72.6981 77.8018 72.6981H79.7773L80.2344 74.6209C80.5197 75.8224 80.705 76.9391 80.7051 77.8875C80.7051 80.5815 80.0242 83.3015 78.7568 86.0223C77.4556 88.8158 75.6083 91.1948 73.2295 93.1336L73.2178 93.1424L73.2061 93.1522C70.7265 95.1244 67.8187 96.1023 64.5908 96.1024C62.3565 96.1024 60.3455 95.6019 58.5703 94.6483C59.148 95.3674 59.4258 96.2396 59.4258 97.1414C59.4258 99.7961 60.1014 101.741 61.2656 103.183C62.414 104.516 63.7387 105.117 65.3975 105.117C67.5905 105.117 70.0886 103.813 72.8398 100.082C75.5771 96.3698 78.2695 90.6265 80.8525 82.6883L81.9492 78.7713C82.4222 76.97 83.0935 74.4733 83.9619 71.285C84.8354 67.984 85.5765 65.2416 86.1846 63.0604C86.8495 60.5822 87.8484 58.4454 89.3398 56.8993C90.9057 55.2761 92.8929 54.4364 95.1484 54.4364C97.1235 54.4364 99.0617 54.9409 100.484 56.3856C101.9 57.8231 102.388 59.7689 102.388 61.7489C102.388 62.7916 102.265 63.8987 102.04 65.0575L102.027 65.119L102.013 65.1805C100.279 72.2012 99.3166 77.0143 99.0566 79.744C99.0388 80.2341 99.0644 80.5699 99.0996 80.784C99.1145 80.7878 99.1298 80.7938 99.1465 80.7977C99.4106 80.8595 99.8143 80.909 100.393 80.909C101.806 80.909 103.195 80.4162 104.615 79.243C106.081 77.9378 107.313 76.1637 108.263 73.8309L108.267 73.8202L108.271 73.8104C109.273 71.4115 109.793 68.7229 109.793 65.7127C109.793 60.7256 108.342 57.6388 105.938 55.8114L105.91 55.7899L105.883 55.7674C103.303 53.6875 99.5879 52.4989 94.4424 52.4989Z" fill="#203529" stroke="#D9D9D9" stroke-width="5" stroke-linecap="round"/>
<path d="M57.2285 44.0833C60.9264 38.2256 66.1369 33.414 72.8603 29.6484C79.6509 25.8828 87.3827 24 96.0558 24C106.88 24 114.982 26.343 120.361 31.0291" stroke="#203529" stroke-width="5" stroke-linecap="round"/>
<path d="M114.488 146.858C119.552 146.858 123.732 148.589 126.625 152.278C129.432 155.805 130.669 160.558 130.669 166.211C130.669 172.699 129.295 179.538 126.613 186.709L126.612 186.708C123.97 193.861 120.364 199.937 115.761 204.879C111.132 209.905 105.871 212.677 100.012 212.677C96.8723 212.677 93.904 211.802 91.1475 210.11L91.1123 210.088C88.2561 208.269 86.0389 205.564 84.3955 202.14L84.3916 202.132L84.3877 202.125C82.7049 198.557 81.9219 194.316 81.9219 189.497C81.9219 184.96 82.5955 180.31 83.9229 175.554L83.9258 175.544L83.9277 175.535C85.2956 170.775 86.9675 166.745 88.9805 163.507L88.9863 163.497L88.9932 163.487C91.2548 159.926 94.197 157.442 97.9434 157.442C98.1919 157.442 98.4406 157.453 98.6875 157.478C99.8792 154.804 101.544 152.511 103.702 150.645C106.657 148.081 110.313 146.858 114.488 146.858ZM114.734 177.169C114.401 177.795 113.988 178.389 113.494 178.944C111.867 180.777 109.641 181.575 107.17 181.575C104.4 181.575 102.036 180.449 100.247 178.324L100.233 178.309L100.221 178.292C100.077 178.115 99.9385 177.934 99.8037 177.75C99.5979 178.928 99.4893 180.262 99.4893 181.762C99.4893 184.863 100.037 186.747 100.758 187.794C101.363 188.673 102.244 189.195 103.83 189.195C105.619 189.195 107.35 188.535 109.082 186.984L109.093 186.973L109.104 186.963C110.962 185.34 112.477 183.22 113.62 180.537C114.09 179.413 114.46 178.29 114.734 177.169ZM111.386 164.966C110.564 164.966 110.17 165.186 109.932 165.413L109.927 165.418C109.74 165.596 109.591 165.834 109.591 166.374C109.591 166.907 109.727 167.118 109.828 167.231C109.89 167.3 109.956 167.375 110.272 167.375C111.819 167.375 113.32 167.931 114.355 169.271C114.758 169.741 115.06 170.255 115.275 170.796C115.121 168.654 114.642 167.276 114.047 166.445L114.02 166.408L113.994 166.369C113.343 165.385 112.56 164.966 111.386 164.966Z" fill="#203529" stroke="#D9D9D9" stroke-width="5"/>
<path d="M209.565 152.5C214.151 152.5 217.851 153.676 220.355 156.304C222.759 158.826 223.951 161.945 223.951 165.562C223.951 168.28 223.239 170.826 221.828 173.174C220.473 175.428 218.644 177.193 216.363 178.453C215.88 178.975 215.22 179.192 214.577 179.192C213.51 179.192 212.566 178.695 211.774 178.02L211.747 177.997L211.721 177.973C211.008 177.304 210.377 176.436 210.301 175.382L210.293 175.169L210.302 174.949C210.339 174.478 210.505 173.996 210.856 173.585L211.004 173.377C211.334 172.854 211.565 172.056 211.565 170.854C211.565 169.979 211.347 169.368 211.001 168.917L210.966 168.871L210.934 168.822C210.764 168.562 210.427 168.283 209.486 168.283C208.448 168.283 207.654 168.616 207 169.275C206.462 169.865 206.055 170.918 206.055 172.727C206.055 173.949 206.34 175.197 206.945 176.483C207.602 177.824 208.654 179.666 210.121 182.025L210.786 183.101C212.293 185.571 213.485 187.771 214.354 189.696C215.4 192.017 215.918 194.509 215.918 197.152C215.918 201.394 214.992 205.232 213.104 208.628L213.104 208.627C211.28 212.003 208.734 214.669 205.479 216.599C202.202 218.541 198.486 219.495 194.374 219.495C190.658 219.495 187.261 218.715 184.215 217.127L184.204 217.121C181.176 215.512 178.797 213.126 177.073 210.009C175.334 206.863 174.5 203.126 174.5 198.861C174.5 194.737 175.216 191.214 176.748 188.378C178.217 185.66 180.029 183.581 182.23 182.267L182.238 182.263L182.246 182.258C184.378 181.019 186.519 180.345 188.646 180.345C189.821 180.345 190.939 180.564 191.852 181.158C192.778 181.761 193.408 182.686 193.408 183.881C193.408 184.986 192.787 185.926 192.07 186.672C191.561 187.241 191.196 187.779 190.949 188.284C190.776 188.639 190.624 189.299 190.624 190.395C190.624 192.346 191.129 193.715 191.98 194.673C192.804 195.548 193.986 196.059 195.726 196.059C197.272 196.059 198.436 195.569 199.346 194.638C200.25 193.712 200.748 192.481 200.748 190.801C200.748 189.794 200.515 188.761 200.015 187.69L200.003 187.667L199.992 187.643C199.495 186.471 198.705 184.927 197.604 182.995C196.1 180.356 194.905 177.994 194.026 175.915L194.013 175.884C193.139 173.678 192.715 171.262 192.715 168.655C192.715 165.828 193.321 163.182 194.544 160.738C195.795 158.239 197.698 156.24 200.208 154.746L200.215 154.742L200.222 154.739C202.836 153.219 205.974 152.5 209.565 152.5Z" fill="#203529" stroke="#D9D9D9" stroke-width="3" stroke-linecap="round"/>
<path d="M140.055 123.778L147.968 113.08H165.863L171.183 118.939L169.2 126.379L158.368 125.786L159.942 123.457L157.169 118.978L148.594 130.061L140.055 123.778Z" fill="#178E3B"/>
<path d="M142.118 122.464L150.126 127.321L148.979 129.167L140.971 124.31L142.118 122.464Z" fill="#2FA65B"/>
<path d="M149.071 131.848C148.84 131.848 148.613 131.784 148.417 131.663L138.816 125.779C138.676 125.693 138.554 125.58 138.458 125.447C138.362 125.314 138.293 125.163 138.256 125.004C138.219 124.844 138.214 124.679 138.242 124.518C138.27 124.357 138.33 124.203 138.418 124.064L143.946 115.426C144.666 114.295 145.664 113.362 146.847 112.718C148.03 112.073 149.36 111.736 150.71 111.74H163.117C164.456 111.737 165.774 112.068 166.949 112.702C168.125 113.336 169.121 114.253 169.845 115.369L171.044 117.208L172.989 116.137C173.218 116.011 173.481 115.959 173.742 115.989C174.002 116.02 174.246 116.13 174.439 116.305C174.633 116.481 174.765 116.712 174.819 116.966C174.872 117.22 174.843 117.484 174.737 117.722L170.158 127.913C170.053 128.145 169.879 128.34 169.659 128.471C169.438 128.602 169.183 128.662 168.927 128.643L157.47 127.827C157.214 127.808 156.969 127.711 156.771 127.55C156.572 127.388 156.428 127.17 156.36 126.924C156.291 126.679 156.3 126.418 156.386 126.178C156.473 125.939 156.632 125.731 156.841 125.584L158.93 124.128L157.184 121.273L150.096 131.319C149.981 131.483 149.827 131.616 149.649 131.708C149.47 131.8 149.272 131.848 149.071 131.848ZM141.204 124.332L148.725 128.942L156.235 118.295C156.354 118.126 156.514 117.99 156.7 117.897C156.886 117.805 157.092 117.76 157.3 117.767C157.508 117.774 157.711 117.832 157.891 117.936C158.07 118.04 158.22 118.187 158.328 118.363L161.67 123.832C161.834 124.1 161.889 124.419 161.824 124.726C161.759 125.033 161.579 125.304 161.321 125.484L161.142 125.608L168.23 126.114L170.958 120.046C170.702 120.115 170.43 120.102 170.182 120.008C169.935 119.914 169.723 119.744 169.58 119.524L167.747 116.711C167.249 115.944 166.563 115.313 165.754 114.876C164.945 114.44 164.038 114.212 163.117 114.214H150.71C149.781 114.212 148.866 114.443 148.052 114.887C147.238 115.33 146.551 115.972 146.055 116.751L141.204 124.332Z" fill="#203529"/>
<path d="M154.133 118.714C154.009 118.714 153.889 118.679 153.786 118.612C153.683 118.546 153.603 118.451 153.555 118.34C153.257 117.653 152.654 117.222 151.758 117.058C151.292 116.976 150.816 116.964 150.347 117.023C150.266 117.036 150.183 117.033 150.102 117.015C150.022 116.997 149.947 116.963 149.88 116.916C149.813 116.87 149.756 116.81 149.713 116.742C149.669 116.674 149.64 116.598 149.627 116.519C149.613 116.439 149.616 116.358 149.635 116.28C149.653 116.202 149.688 116.128 149.736 116.063C149.783 115.997 149.844 115.942 149.914 115.899C149.984 115.857 150.062 115.828 150.143 115.815C150.743 115.734 151.353 115.745 151.95 115.847C153.287 116.08 154.242 116.779 154.711 117.864C154.751 117.957 154.767 118.058 154.757 118.159C154.748 118.259 154.713 118.356 154.656 118.44C154.599 118.524 154.521 118.593 154.43 118.641C154.339 118.689 154.237 118.714 154.134 118.714H154.133ZM157.224 158.659H157.172L146.824 158.242C145.47 158.191 144.152 157.804 142.993 157.119C141.834 156.434 140.872 155.472 140.198 154.324L133.975 143.794C133.301 142.659 132.93 141.377 132.897 140.066C132.863 138.754 133.168 137.456 133.783 136.29L134.797 134.363L132.882 133.241C132.657 133.109 132.479 132.911 132.375 132.676C132.271 132.44 132.246 132.178 132.303 131.927C132.359 131.677 132.496 131.45 132.692 131.279C132.888 131.108 133.134 131.001 133.395 130.974L144.633 129.821C144.889 129.795 145.148 129.846 145.373 129.968C145.598 130.091 145.779 130.278 145.891 130.504L150.919 140.63C151.032 140.857 151.07 141.113 151.028 141.362C150.986 141.611 150.867 141.842 150.685 142.022C150.504 142.202 150.27 142.323 150.016 142.368C149.762 142.413 149.499 142.381 149.265 142.274L146.938 141.222L145.309 144.115L157.678 145.16C157.997 145.187 158.294 145.332 158.506 145.566C158.719 145.8 158.832 146.104 158.823 146.417L158.477 157.473C158.467 157.791 158.33 158.093 158.096 158.314C157.862 158.536 157.549 158.66 157.224 158.659H157.224ZM137.326 133.029C137.515 133.212 137.64 133.449 137.681 133.706C137.723 133.963 137.68 134.226 137.559 134.457L136.012 137.406C135.589 138.209 135.379 139.102 135.402 140.005C135.426 140.907 135.681 141.789 136.144 142.57L142.368 153.099C142.832 153.889 143.494 154.551 144.291 155.023C145.089 155.494 145.996 155.76 146.928 155.795L156.011 156.162L156.282 147.499L143.176 146.392C142.968 146.374 142.769 146.306 142.595 146.194C142.421 146.082 142.279 145.929 142.18 145.75C142.082 145.571 142.031 145.37 142.032 145.167C142.033 144.963 142.086 144.763 142.186 144.585L145.306 139.043C145.459 138.772 145.711 138.567 146.013 138.47C146.314 138.374 146.642 138.393 146.93 138.523L147.129 138.613L144.018 132.345L137.326 133.029Z" fill="#203529"/>
<path d="M144.421 153.093C144.329 153.093 144.238 153.073 144.155 153.034C144.071 152.995 143.998 152.939 143.939 152.869C143.568 152.399 143.274 151.875 143.066 151.316C142.607 150.061 142.748 148.899 143.472 147.955C143.572 147.825 143.72 147.739 143.884 147.717C144.049 147.695 144.215 147.737 144.347 147.836C144.479 147.934 144.566 148.08 144.589 148.242C144.612 148.403 144.568 148.567 144.468 148.697C143.333 150.176 144.885 152.069 144.903 152.087C144.978 152.177 145.026 152.286 145.04 152.402C145.055 152.518 145.036 152.635 144.985 152.74C144.935 152.846 144.855 152.935 144.755 152.997C144.655 153.06 144.54 153.093 144.421 153.093ZM166.692 160C166.495 160 166.3 159.954 166.124 159.866C165.949 159.778 165.797 159.65 165.681 159.493L159.061 150.516C158.911 150.312 158.827 150.066 158.823 149.813C158.819 149.561 158.894 149.313 159.038 149.103L165.479 139.739C165.624 139.529 165.831 139.368 166.072 139.278C166.313 139.189 166.576 139.175 166.826 139.238C167.075 139.302 167.298 139.44 167.465 139.633C167.632 139.827 167.734 140.066 167.757 140.319L167.985 142.824L171.354 142.755L166.114 131.712C165.979 131.427 165.959 131.102 166.06 130.804C166.16 130.506 166.373 130.256 166.654 130.108L176.599 124.845C176.744 124.768 176.904 124.72 177.068 124.704C177.233 124.689 177.398 124.705 177.556 124.753C177.714 124.8 177.861 124.878 177.988 124.982C178.115 125.086 178.22 125.214 178.296 125.358L183.081 134.368C183.71 135.545 184.026 136.86 183.998 138.19C183.97 139.52 183.6 140.821 182.922 141.971L176.718 152.555C176.051 153.698 175.103 154.658 173.961 155.345C172.819 156.033 171.519 156.426 170.182 156.489L167.977 156.598L167.94 158.79C167.935 159.113 167.801 159.42 167.568 159.647C167.334 159.873 167.019 160 166.692 160ZM161.597 149.769L165.539 155.113C165.606 154.861 165.754 154.636 165.96 154.471C166.166 154.306 166.42 154.211 166.685 154.198L170.058 154.032C170.978 153.989 171.872 153.718 172.658 153.245C173.444 152.772 174.096 152.111 174.555 151.325L180.761 140.741C181.228 139.949 181.483 139.054 181.503 138.139C181.522 137.223 181.305 136.318 180.872 135.509L176.669 127.6L168.879 131.724L174.433 143.425C174.521 143.61 174.56 143.815 174.548 144.019C174.536 144.223 174.472 144.422 174.362 144.595C174.252 144.769 174.1 144.913 173.919 145.015C173.739 145.116 173.535 145.171 173.327 145.176L166.873 145.31C166.556 145.316 166.249 145.204 166.014 144.996C165.778 144.788 165.631 144.5 165.603 144.19L165.583 143.975L161.597 149.769Z" fill="#203529"/>
<path d="M176.257 142.573C176.117 142.573 175.977 142.563 175.838 142.544C175.677 142.522 175.531 142.432 175.431 142.292C175.382 142.223 175.345 142.144 175.324 142.06C175.303 141.975 175.297 141.887 175.307 141.8C175.317 141.714 175.342 141.63 175.382 141.554C175.422 141.478 175.475 141.411 175.538 141.357C175.666 141.249 175.829 141.2 175.99 141.222C177.818 141.47 178.687 139.008 178.695 138.984C178.724 138.902 178.766 138.827 178.821 138.763C178.876 138.699 178.942 138.647 179.015 138.611C179.088 138.575 179.167 138.554 179.247 138.551C179.328 138.548 179.408 138.563 179.483 138.593C179.558 138.624 179.627 138.671 179.686 138.73C179.744 138.79 179.792 138.862 179.825 138.942C179.858 139.021 179.877 139.107 179.879 139.195C179.882 139.282 179.869 139.369 179.841 139.451C179.618 140.049 179.312 140.606 178.932 141.101C178.178 142.07 177.261 142.573 176.257 142.573Z" fill="#203529"/>
<rect x="12.5" y="9.5" width="683" height="286" rx="8.5" stroke="#BBBCBF" stroke-width="3"/>
<path d="M647.1 110.5C653.738 110.5 659.219 112.803 663.251 117.526H663.25C667.338 122.197 669.25 128.383 669.25 135.8C669.25 140.885 668.614 145.991 667.355 151.114C669.621 150.245 671.784 148.445 673.846 145.475C674.866 143.868 676.582 143.35 678.15 143.35C680.213 143.35 682.053 144.11 683.582 145.5C684.392 146.236 685.081 147.185 685.351 148.371C685.623 149.569 685.399 150.717 684.907 151.721L684.908 151.722C681.997 157.857 678.377 163.02 674.023 167.161C669.476 171.487 663.66 173.617 656.793 173.695C653.203 178.633 649.076 182.62 644.396 185.607L644.395 185.606C639.465 188.817 634.354 190.5 629.1 190.5C624.649 190.5 620.787 189.323 617.742 186.765C614.894 184.372 613.462 180.974 613.161 176.924L613.106 177.215L613.104 177.232L613.1 177.25C611.197 186.561 609.536 193.91 608.119 199.276L608.12 199.277C606.677 204.842 604.799 209.626 602.449 213.578C600.031 217.743 596.76 220.5 592.5 220.5C588.624 220.5 585.255 219.544 582.87 217.193C580.478 214.836 579.5 211.495 579.5 207.65C579.5 203.975 580.385 199.687 582.033 194.845C583.56 190.166 586.181 183.165 589.877 173.876L594.216 162.951L600.35 146.047L601.391 143.074C604.779 133.109 607.244 126.209 608.774 122.432C610.305 118.554 611.957 115.507 613.832 113.632L613.833 113.633C615.867 111.497 618.543 110.5 621.6 110.5C624.089 110.5 626.483 110.937 628.169 112.37C629.801 113.758 630.322 115.664 630.177 117.614C630.309 117.524 630.461 117.403 630.632 117.232L630.651 117.214L630.67 117.195C633.222 114.749 635.853 112.967 638.572 112.01V112.009C641.268 110.998 644.116 110.5 647.1 110.5ZM636.45 137.4C633.763 137.4 631.503 138.463 629.54 140.827C627.582 143.306 626.65 145.957 626.65 148.85C626.65 150.798 627.124 152.143 627.869 153.096C628.545 153.854 629.734 154.45 631.95 154.45C633.826 154.45 635.454 153.915 636.917 152.837C638.603 151.568 639.893 150.022 640.813 148.182C641.77 146.27 642.2 144.5 642.2 142.85C642.2 141.1 641.687 139.835 640.772 138.855L640.741 138.822L640.711 138.787C640.056 138.032 638.833 137.4 636.45 137.4Z" fill="#203529" stroke="#D9D9D9" stroke-width="5"/>
<path d="M592.1 63.5C598.738 63.5 604.219 65.8033 608.251 70.5264H608.25C612.338 75.1966 614.25 81.3826 614.25 88.7998C614.25 93.8848 613.614 98.9906 612.355 104.114C614.621 103.245 616.784 101.445 618.846 98.4746C619.866 96.868 621.582 96.3496 623.15 96.3496C625.213 96.3497 627.053 97.11 628.582 98.5C629.392 99.2361 630.081 100.185 630.351 101.371C630.623 102.569 630.399 103.717 629.907 104.721L629.908 104.722C626.997 110.857 623.377 116.02 619.023 120.161C614.476 124.487 608.66 126.617 601.793 126.695C598.203 131.633 594.076 135.62 589.396 138.607L589.395 138.606C584.465 141.817 579.354 143.5 574.1 143.5C569.649 143.5 565.787 142.323 562.742 139.765C559.894 137.372 558.462 133.974 558.161 129.924L558.106 130.215L558.104 130.232L558.1 130.25C556.197 139.561 554.536 146.91 553.119 152.276L553.12 152.277C551.677 157.842 549.799 162.626 547.449 166.578C545.031 170.743 541.76 173.5 537.5 173.5C533.624 173.5 530.255 172.544 527.87 170.193C525.478 167.836 524.5 164.495 524.5 160.65C524.5 156.975 525.385 152.687 527.033 147.845C528.56 143.166 531.181 136.165 534.877 126.876L539.216 115.951L545.35 99.0469L546.391 96.0742C549.779 86.109 552.244 79.2089 553.774 75.4316C555.305 71.5537 556.957 68.5068 558.832 66.6318L558.833 66.6328C560.867 64.4967 563.543 63.5001 566.6 63.5C569.089 63.5 571.483 63.9374 573.169 65.3701C574.801 66.7577 575.322 68.6636 575.177 70.6143C575.309 70.5245 575.461 70.403 575.632 70.2324L575.651 70.2139L575.67 70.1953C578.222 67.7493 580.853 65.9675 583.572 65.0098V65.0088C586.268 63.9981 589.116 63.5 592.1 63.5ZM581.45 90.4004C578.763 90.4004 576.503 91.4634 574.54 93.8271C572.582 96.3056 571.65 98.9569 571.65 101.85C571.65 103.798 572.124 105.143 572.869 106.096C573.545 106.854 574.734 107.45 576.95 107.45C578.826 107.45 580.454 106.915 581.917 105.837C583.603 104.568 584.893 103.022 585.813 101.182C586.77 99.2695 587.2 97.5002 587.2 95.8496C587.2 94.1002 586.687 92.8353 585.772 91.8555L585.741 91.8223L585.711 91.7871C585.056 91.0315 583.833 90.4004 581.45 90.4004Z" fill="#203529" stroke="#D9D9D9" stroke-width="5"/>
<path d="M546 17.5C551.457 17.5 556.004 19.0379 559.21 22.4756C562.411 25.6992 563.95 29.8499 563.95 34.7002V34.7256L563.949 34.752C563.841 39.9307 562.594 44.5386 560.116 48.4805L560.099 48.5078C557.596 52.3749 554.253 54.75 550.05 54.75C548.916 54.7499 547.62 54.3208 546.389 53.8076L546.309 53.7744L546.232 53.7363C545.735 53.4875 545.362 53.3489 545.102 53.2803C544.929 53.2348 544.842 53.2294 544.823 53.2285L544.678 53.25H544.5C544.465 53.25 544.184 53.2604 543.614 53.7295C543.039 54.2033 542.327 55.0203 541.503 56.3018C539.89 58.81 538.174 62.8411 536.4 68.5498C535.211 72.8124 534.275 76.4608 533.589 79.501C532.919 82.4661 532.6 85.077 532.6 87.3496C532.6 90.6203 533.209 92.6218 534.033 93.7529C534.75 94.7368 535.838 95.3496 537.75 95.3496C539.79 95.3496 541.738 94.9275 543.615 94.0742L543.634 94.0654L543.653 94.0576C545.494 93.2573 546.897 92.0437 547.925 90.3838L547.946 90.3486L547.97 90.3135C548.989 88.7853 550.537 87.8496 552.45 87.8496C554.673 87.8497 556.539 88.8448 557.949 90.5254C558.647 91.3001 559.252 92.2306 559.5 93.3213C559.764 94.4829 559.574 95.6248 559.002 96.6318L556.186 102.117C553.361 107.967 550.573 113.091 547.817 117.479L547.816 117.479C545.059 122.03 541.47 126.085 537.073 129.644L537.072 129.643C532.541 133.392 527.338 135.3 521.55 135.3C515.719 135.3 511.169 132.827 508.292 127.913L508.281 127.894L508.27 127.873C505.69 123.274 504.5 117.407 504.5 110.45C504.5 107.528 504.783 104.098 505.327 100.176C500.554 99.8205 495.839 99.1446 491.181 98.1465L486.687 106.262L486.677 106.279L486.667 106.298C480.854 116.395 474.187 124.77 466.648 131.38L466.647 131.379C459.12 138.066 451.158 141.6 442.8 141.6C436.005 141.6 430.155 140.347 425.382 137.683C420.723 135.082 417.195 131.653 414.938 127.364V127.363C412.647 123.201 411.5 118.7 411.5 113.9C411.5 109.443 412.426 105.145 414.268 101.029C416.12 96.8892 418.717 93.4937 422.079 90.916C425.53 88.2702 429.519 86.9502 433.95 86.9502L434.178 86.9551C435.213 87.0015 436.189 87.3677 436.993 88.0732C437.971 88.7532 438.7 89.8337 438.7 91.25C438.7 93.7007 439.679 95.6743 441.878 97.332C444.164 98.9567 447.118 99.8496 450.9 99.8496C457.804 99.8495 464.46 96.8038 470.887 90.2607C464.117 86.3573 458.612 81.5342 454.427 75.7686L454.411 75.7471C449.72 69.1367 447.35 61.8337 447.35 53.9004C447.35 48.4344 448.532 43.5746 451.001 39.4219C453.432 35.3331 456.726 32.1984 460.858 30.0762C464.924 27.9886 469.317 26.9502 474 26.9502C479.839 26.9502 484.684 28.5269 488.099 32.0635H488.098C491.338 35.3185 493 39.2897 493 43.8496C493 45.4076 492.564 46.9717 491.368 48.168C490.138 49.398 488.544 49.797 486.951 49.6377L486.93 49.6357L486.908 49.6328C484.156 49.309 481.902 49.9813 479.958 51.6143C478.269 53.033 477.1 55.6928 477.1 60.3496C477.1 66.2572 478.883 71.0813 482.439 74.9648L484.894 70.7842C495.54 51.6099 505.868 37.8457 515.934 29.752L515.943 29.7441C526.027 21.7184 536.06 17.5 546 17.5ZM519.475 54.7939C519.192 54.9203 518.835 55.124 518.4 55.4502L518.386 55.4609L518.37 55.4717C517.525 56.0863 516.102 57.4777 514.032 59.8389C510.09 64.9574 505.095 72.8806 499.038 83.6768C501.814 84.3189 505.004 84.7746 508.622 85.0332C510.672 78.3001 513.266 71.2458 516.399 63.8721L516.402 63.8643L516.406 63.8564C517.703 60.8648 518.495 58.7937 518.847 57.5635L518.868 57.4854L518.896 57.4092C519.23 56.4737 519.414 55.6041 519.475 54.7939Z" fill="#203529" stroke="#D9D9D9" stroke-width="5"/>
</svg>
