<svg width="80" height="80" viewBox="0 0 80 80" fill="none" xmlns="http://www.w3.org/2000/svg">
<path d="M12.0603 20.1434L24.4256 2.10522H52.3912L60.7035 11.9832L57.605 24.5287L40.6781 23.5284L43.1372 19.6019L38.8041 12.0503L25.4041 30.7368L12.0603 20.1434Z" fill="#178E3B"/>
<path d="M15.0803 17.6843L27.7392 25.6172L25.9257 28.6316L13.2668 20.6987L15.0803 17.6843Z" fill="#2FA65B"/>
<path d="M26.0355 33.2632C25.6777 33.2628 25.327 33.1568 25.0229 32.9572L10.1624 23.223C9.94503 23.0807 9.75648 22.8941 9.60767 22.674C9.45886 22.454 9.35275 22.2049 9.29548 21.9412C9.23821 21.6775 9.23092 21.4043 9.27402 21.1376C9.31713 20.8709 9.40977 20.6158 9.5466 20.3873L18.1026 6.09838C19.2167 4.22602 20.762 2.68409 22.5933 1.61736C24.4247 0.550641 26.4821 -0.00588155 28.5724 4.68734e-05H47.7767C49.8489 -0.00461301 51.8888 0.542777 53.7086 1.5918C55.5284 2.64083 57.0696 4.15776 58.1903 6.00288L60.0461 9.04523L63.057 7.27361C63.4115 7.06485 63.819 6.97944 64.2219 7.02947C64.6248 7.07951 65.0026 7.26245 65.3018 7.55239C65.6011 7.84233 65.8066 8.22458 65.8892 8.64501C65.9719 9.06543 65.9275 9.50273 65.7624 9.89498L58.6745 26.7536C58.5128 27.138 58.2431 27.4602 57.9021 27.6764C57.5611 27.8927 57.1655 27.9924 56.7691 27.962L39.0357 26.6113C38.6389 26.5799 38.2609 26.4196 37.9533 26.1524C37.6458 25.8851 37.4236 25.5238 37.3172 25.1179C37.2108 24.712 37.2252 24.2812 37.3587 23.8844C37.4921 23.4875 37.738 23.1439 38.0627 22.9005L41.2955 20.4925L38.5938 15.7692L27.6215 32.3881C27.4433 32.6584 27.206 32.8791 26.9298 33.0315C26.6537 33.1838 26.3469 33.2633 26.0355 33.2632ZM13.8591 20.8307L25.4998 28.455L37.1247 10.8441C37.309 10.5646 37.5563 10.3383 37.8441 10.1856C38.132 10.0329 38.4513 9.95882 38.7731 9.96995C39.0948 9.98108 39.4089 10.0771 39.6867 10.2494C39.9646 10.4216 40.1973 10.6646 40.364 10.9562L45.5372 20.0024C45.7908 20.4458 45.8759 20.9746 45.7755 21.482C45.675 21.9894 45.3964 22.4375 44.9959 22.7358L44.7198 22.9414L55.6903 23.7775L59.9126 13.7403C59.5165 13.8547 59.0962 13.8326 58.7127 13.6772C58.3293 13.5218 58.0025 13.2411 57.7798 12.8759L54.9428 8.22374C54.1716 6.95401 53.111 5.91012 51.8587 5.18824C50.6064 4.46635 49.2027 4.08967 47.7767 4.09289H28.5724C27.134 4.08884 25.7183 4.47178 24.458 5.20576C23.1978 5.93974 22.1344 7.00069 21.3676 8.28903L13.8591 20.8307Z" fill="#203529"/>
<path d="M33.761 11.2424C33.5706 11.2425 33.3844 11.1834 33.2258 11.0723C33.0671 10.9613 32.943 10.8033 32.8691 10.6182C32.4083 9.47266 31.4768 8.75309 30.0929 8.47887C29.3736 8.34183 28.6387 8.32215 27.9137 8.42053C27.7884 8.44236 27.6602 8.43793 27.5364 8.40747C27.4127 8.37702 27.2959 8.32115 27.1926 8.24304C27.0893 8.16494 27.0017 8.06613 26.9346 7.95226C26.8675 7.83839 26.8223 7.71169 26.8016 7.5794C26.7809 7.4471 26.7851 7.3118 26.814 7.18122C26.8428 7.05064 26.8958 6.92734 26.9698 6.81835C27.0438 6.70936 27.1374 6.61683 27.2453 6.54603C27.3532 6.47523 27.4733 6.42755 27.5986 6.40571C28.5259 6.27023 29.4675 6.28795 30.3896 6.45822C32.4553 6.84718 33.9296 8.01406 34.6538 9.8237C34.7158 9.97895 34.7404 10.1479 34.7255 10.3157C34.7107 10.4834 34.6567 10.6446 34.5686 10.7851C34.4804 10.9255 34.3607 11.0407 34.2201 11.1205C34.0795 11.2003 33.9224 11.2422 33.7628 11.2424H33.761ZM38.5357 77.8947H38.4555L22.4729 77.1975C20.3819 77.1125 18.3458 76.468 16.5557 75.3246C14.7655 74.1813 13.2801 72.5765 12.2388 70.661L2.62765 53.0907C1.58693 51.1973 1.01436 49.058 0.962671 46.8698C0.910984 44.6816 1.38184 42.5149 2.33188 40.5691L3.89827 37.3534L0.94056 35.4825C0.592295 35.2623 0.318475 34.9321 0.157863 34.5386C-0.0027488 34.1451 -0.0420154 33.7082 0.0456219 33.2899C0.133259 32.8716 0.34336 32.4929 0.646183 32.2075C0.949006 31.9222 1.32921 31.7445 1.73297 31.6998L19.0895 29.7754C19.4851 29.7316 19.8839 29.8174 20.2316 30.0213C20.5794 30.2253 20.8591 30.5374 21.0327 30.9151L28.7974 47.8106C28.9718 48.1897 29.0307 48.6165 28.9662 49.0324C28.9016 49.4483 28.7167 49.8329 28.4368 50.1335C28.1569 50.4342 27.7957 50.636 27.4028 50.7114C27.0099 50.7868 26.6046 50.7321 26.2423 50.5547L22.6488 48.7985L20.1334 53.6265L39.2369 55.37C39.7295 55.415 40.1871 55.6573 40.5158 56.0472C40.8444 56.4371 41.0192 56.9449 41.0041 57.4665L40.4697 75.9149C40.4544 76.4457 40.2438 76.9492 39.8825 77.3188C39.5213 77.6884 39.0379 77.895 38.5348 77.8947H38.5357ZM7.8041 35.1285C8.09598 35.4339 8.28814 35.8294 8.35275 36.2577C8.41736 36.6861 8.35106 37.125 8.16345 37.5109L5.77517 42.4322C5.12144 43.7712 4.79746 45.2622 4.83304 46.7679C4.86863 48.2737 5.26264 49.7458 5.9788 51.0487L15.5909 68.6171C16.3074 69.9351 17.3296 71.0394 18.5614 71.8263C19.7933 72.6131 21.1943 73.0567 22.6332 73.1154L36.6616 73.727L37.0799 59.2723L16.8385 57.4247C16.5181 57.3951 16.2098 57.2817 15.9414 57.0947C15.673 56.9078 15.453 56.6532 15.3013 56.354C15.1496 56.0548 15.0709 55.7204 15.0724 55.381C15.0739 55.0416 15.1555 54.708 15.3099 54.4103L20.1279 45.1637C20.3641 44.7105 20.7545 44.3689 21.2202 44.2077C21.6859 44.0465 22.1922 44.0778 22.6369 44.2953L22.9437 44.4451L18.1386 33.9869L7.8041 35.1285Z" fill="#203529"/>
<path d="M18.5933 68.549C18.4502 68.5491 18.3089 68.5158 18.1795 68.4515C18.0501 68.3872 17.9359 68.2934 17.8451 68.177C17.2695 67.3984 16.8126 66.5301 16.4907 65.6034C15.7785 63.5222 15.9971 61.5954 17.1209 60.0309C17.2759 59.8152 17.5059 59.6731 17.7605 59.636C18.015 59.5988 18.2731 59.6696 18.478 59.8328C18.6829 59.9959 18.8179 60.2381 18.8532 60.506C18.8885 60.7739 18.8212 61.0456 18.6662 61.2614C16.905 63.7126 19.312 66.8504 19.3406 66.8815C19.4572 67.0307 19.5311 67.2117 19.5538 67.4034C19.5764 67.5951 19.5469 67.7896 19.4686 67.9643C19.3903 68.1391 19.2665 68.2868 19.1115 68.3903C18.9565 68.4938 18.7768 68.5488 18.5933 68.549ZM53.1463 80C52.8403 80.0001 52.5387 79.924 52.2661 79.7778C51.9935 79.6316 51.7576 79.4196 51.5779 79.159L41.3076 64.2768C41.0736 63.9376 40.9446 63.5307 40.9382 63.1116C40.9317 62.6924 41.0481 62.2814 41.2716 61.9344L51.2651 46.4093C51.4893 46.061 51.8105 45.7942 52.1844 45.6455C52.5583 45.4968 52.9668 45.4735 53.3538 45.5788C53.7408 45.6841 54.0874 45.9129 54.3461 46.2337C54.6048 46.5545 54.7628 46.9517 54.7986 47.3708L55.1529 51.5244L60.3794 51.4098L52.2495 33.1014C52.0398 32.6293 52.0098 32.0906 52.1656 31.5959C52.3214 31.1013 52.6512 30.6881 53.0872 30.4414L68.5176 21.7164C68.7432 21.5888 68.9907 21.5096 69.2456 21.4834C69.5005 21.4571 69.7579 21.4844 70.0028 21.5635C70.2476 21.6426 70.4752 21.772 70.6722 21.9443C70.8692 22.1166 71.0319 22.3283 71.1507 22.5671L78.5738 37.5047C79.5507 39.4555 80.0406 41.6357 79.9975 43.8406C79.9545 46.0454 79.3798 48.2025 78.3275 50.1094L68.7021 67.6565C67.6675 69.552 66.1964 71.143 64.4244 72.283C62.6523 73.423 60.6363 74.0753 58.5619 74.1798L55.14 74.3595L55.0837 77.9936C55.0755 78.5287 54.8677 79.039 54.5053 79.4144C54.1428 79.7898 53.6547 80.0001 53.1463 80ZM45.2415 63.0376L51.3574 71.8985C51.4621 71.4796 51.6909 71.1066 52.0105 70.8336C52.3302 70.5607 52.7241 70.402 53.1352 70.3806L58.3691 70.1058C59.7965 70.0338 61.1837 69.5849 62.4031 68.8005C63.6224 68.0161 64.6347 66.9213 65.3466 65.617L74.9757 48.07C75.7001 46.7578 76.0957 45.2733 76.1256 43.756C76.1554 42.2386 75.8185 40.7382 75.1464 39.3955L68.6265 26.2848L56.5405 33.1208L65.1566 52.5199C65.2932 52.8275 65.3547 53.1661 65.3355 53.505C65.3163 53.8439 65.2171 54.1725 65.0467 54.4608C64.8764 54.7491 64.6403 54.9881 64.36 55.1561C64.0797 55.324 63.764 55.4157 63.4415 55.4227L53.4267 55.6451C52.936 55.6558 52.4598 55.47 52.0942 55.1253C51.7286 54.7807 51.5008 54.3028 51.457 53.7882L51.4266 53.4328L45.2415 63.0376Z" fill="#203529"/>
<path d="M67.8415 50.9474C67.6199 50.9473 67.3985 50.9323 67.1786 50.9025C66.9242 50.8682 66.6928 50.7258 66.5353 50.5068C66.4574 50.3983 66.3999 50.2743 66.3662 50.1418C66.3325 50.0093 66.3233 49.871 66.339 49.7346C66.3547 49.5982 66.3951 49.4666 66.4578 49.3471C66.5205 49.2276 66.6044 49.1227 66.7046 49.0383C66.9069 48.8679 67.1636 48.7914 67.418 48.8258C70.3088 49.2164 71.6815 45.3499 71.6953 45.311C71.7399 45.1823 71.8074 45.0643 71.8941 44.9639C71.9807 44.8634 72.0848 44.7824 72.2004 44.7255C72.316 44.6686 72.4408 44.6369 72.5677 44.6322C72.6946 44.6275 72.8211 44.6499 72.9401 44.6981C73.059 44.7464 73.1679 44.8195 73.2607 44.9133C73.3535 45.0071 73.4284 45.1197 73.4809 45.2449C73.5335 45.37 73.5628 45.5051 73.5672 45.6424C73.5715 45.7798 73.5508 45.9167 73.5063 46.0454C73.1545 46.9847 72.6696 47.8588 72.0691 48.6364C70.8778 50.1581 69.4278 50.9474 67.8415 50.9474Z" fill="#203529"/>
</svg>
