<svg width="423" height="464" viewBox="0 0 423 464" fill="none" xmlns="http://www.w3.org/2000/svg">
<path d="M324.3 242.95C332.88 242.95 339.748 245.096 344.39 249.854C348.869 254.445 351.1 260.132 351.1 266.75C351.1 271.721 349.767 276.373 347.129 280.66C344.585 284.795 341.157 288.022 336.882 290.316C336.033 291.229 334.875 291.6 333.75 291.6C331.862 291.6 330.163 290.74 328.699 289.52L328.655 289.483L328.611 289.443C327.208 288.157 326 286.486 326 284.45C326 283.47 326.296 282.45 327.049 281.622C327.843 280.615 328.401 279.013 328.401 276.5C328.401 274.856 327.979 273.678 327.284 272.795L327.224 272.718L327.17 272.637C326.782 272.054 326.021 271.5 324.151 271.5C322.086 271.5 320.494 272.157 319.199 273.437C318.122 274.592 317.35 276.598 317.35 279.95C317.35 282.232 317.896 284.56 319.048 286.956C320.292 289.439 322.285 292.847 325.06 297.208H325.059C328.493 302.561 331.156 307.264 333.02 311.303C334.979 315.547 335.95 320.106 335.95 324.95C335.95 332.735 334.21 339.769 330.673 345.986C327.256 352.168 322.489 357.04 316.403 360.563C310.282 364.107 303.341 365.85 295.651 365.85C288.7 365.85 282.354 364.425 276.665 361.527L276.656 361.523L276.649 361.518C271.002 358.586 266.553 354.235 263.324 348.531C260.068 342.778 258.5 335.933 258.5 328.1C258.5 320.523 259.847 314.069 262.712 308.889C265.468 303.907 268.854 300.125 272.941 297.741L272.966 297.725C276.949 295.465 280.922 294.25 284.85 294.25C287.02 294.25 289.048 294.644 290.693 295.691C292.358 296.751 293.5 298.376 293.5 300.5C293.5 302.47 292.361 304.158 291.023 305.511C290.058 306.566 289.36 307.571 288.886 308.518C288.537 309.217 288.25 310.469 288.25 312.5C288.25 316.131 289.211 318.716 290.877 320.543C292.502 322.229 294.832 323.2 298.2 323.2C301.215 323.2 303.504 322.261 305.282 320.482C307.048 318.717 308 316.386 308 313.25C308 311.362 307.552 309.429 306.595 307.429L306.575 307.388L306.558 307.346C305.614 305.176 304.118 302.322 302.04 298.76C299.207 293.903 296.957 289.561 295.306 285.742L295.294 285.716L295.283 285.689C293.648 281.655 292.85 277.231 292.85 272.45C292.85 267.271 293.987 262.428 296.275 257.961C298.61 253.4 302.164 249.76 306.844 247.039L306.855 247.032L306.865 247.026C311.729 244.263 317.58 242.95 324.3 242.95Z" fill="#203529" stroke="white" stroke-width="5" stroke-linecap="round"/>
<path d="M329.402 233.85C334.446 233.439 337.699 234.583 343.502 237.283C350.936 240.741 355 246.95 357 251.45C359.743 257.622 362.031 267.51 359.5 272.95" stroke="#203529" stroke-width="5" stroke-linecap="round"/>
<path d="M184 189.39L201.286 165.45H240.38L252 178.56L247.669 195.211L224.006 193.883L227.444 188.672L221.386 178.649L202.654 203.45L184 189.39Z" fill="#178E3B"/>
<path d="M188.506 186.45L206 197.32L203.494 201.45L186 190.58L188.506 186.45Z" fill="#2FA65B"/>
<path d="M203.696 207.45C203.191 207.45 202.696 207.306 202.267 207.036L181.293 193.867C180.986 193.675 180.72 193.422 180.51 193.125C180.3 192.827 180.15 192.49 180.07 192.133C179.989 191.776 179.978 191.407 180.039 191.046C180.1 190.685 180.231 190.34 180.424 190.031L192.5 170.7C194.072 168.167 196.253 166.081 198.838 164.638C201.422 163.195 204.326 162.442 207.276 162.45H234.38C237.304 162.444 240.184 163.184 242.752 164.603C245.32 166.023 247.496 168.075 249.077 170.571L251.696 174.687L255.946 172.29C256.446 172.008 257.021 171.892 257.59 171.96C258.159 172.028 258.692 172.275 259.114 172.667C259.536 173.059 259.826 173.577 259.943 174.145C260.06 174.714 259.997 175.306 259.764 175.836L249.761 198.644C249.532 199.164 249.152 199.599 248.67 199.892C248.189 200.185 247.631 200.319 247.071 200.278L222.043 198.451C221.483 198.409 220.95 198.192 220.516 197.83C220.082 197.469 219.768 196.98 219.618 196.431C219.468 195.882 219.488 195.299 219.677 194.762C219.865 194.225 220.212 193.76 220.67 193.431L225.233 190.173L221.42 183.783L205.934 206.266C205.682 206.632 205.348 206.93 204.958 207.137C204.568 207.343 204.135 207.45 203.696 207.45ZM186.511 190.631L202.939 200.945L219.346 177.12C219.606 176.742 219.955 176.436 220.362 176.23C220.768 176.023 221.219 175.923 221.673 175.938C222.127 175.953 222.57 176.083 222.962 176.316C223.354 176.549 223.683 176.878 223.918 177.272L231.219 189.51C231.577 190.11 231.697 190.826 231.556 191.512C231.414 192.198 231.021 192.805 230.455 193.208L230.066 193.486L245.549 194.617L251.508 181.039C250.949 181.193 250.356 181.163 249.815 180.953C249.273 180.743 248.812 180.363 248.498 179.869L244.494 173.575C243.405 171.858 241.909 170.446 240.141 169.469C238.374 168.492 236.392 167.983 234.38 167.987H207.276C205.246 167.982 203.248 168.5 201.469 169.493C199.691 170.486 198.19 171.921 197.108 173.664L186.511 190.631Z" fill="#203529"/>
<path d="M214.754 178.058C214.485 178.058 214.221 177.978 213.997 177.829C213.772 177.68 213.597 177.469 213.492 177.22C212.841 175.684 211.523 174.719 209.565 174.351C208.548 174.167 207.509 174.141 206.483 174.273C206.306 174.302 206.124 174.296 205.949 174.255C205.774 174.214 205.609 174.14 205.463 174.035C205.317 173.93 205.193 173.798 205.098 173.645C205.003 173.492 204.939 173.322 204.91 173.145C204.881 172.967 204.887 172.786 204.928 172.611C204.968 172.436 205.043 172.27 205.148 172.124C205.253 171.978 205.385 171.854 205.538 171.759C205.69 171.664 205.86 171.6 206.037 171.571C207.349 171.389 208.681 171.413 209.985 171.641C212.907 172.163 214.992 173.728 216.017 176.155C216.104 176.363 216.139 176.59 216.118 176.815C216.097 177.039 216.021 177.256 215.896 177.444C215.771 177.632 215.602 177.787 215.403 177.894C215.204 178.001 214.982 178.057 214.756 178.058H214.754ZM221.507 267.45H221.394L198.787 266.515C195.83 266.401 192.95 265.537 190.418 264.003C187.885 262.47 185.784 260.317 184.312 257.748L170.717 234.183C169.245 231.644 168.435 228.775 168.362 225.84C168.289 222.905 168.955 219.999 170.299 217.39L172.514 213.077L168.331 210.568C167.838 210.272 167.451 209.829 167.224 209.302C166.996 208.774 166.941 208.188 167.065 207.627C167.189 207.066 167.486 206.558 167.914 206.175C168.343 205.793 168.88 205.554 169.451 205.494L194.002 202.914C194.561 202.855 195.125 202.97 195.617 203.243C196.109 203.517 196.505 203.935 196.75 204.442L207.733 227.102C207.98 227.61 208.063 228.183 207.972 228.741C207.88 229.298 207.619 229.814 207.223 230.217C206.827 230.621 206.316 230.891 205.76 230.992C205.205 231.093 204.631 231.02 204.119 230.782L199.036 228.427L195.478 234.902L222.499 237.24C223.196 237.301 223.843 237.626 224.308 238.149C224.773 238.671 225.02 239.353 224.999 240.052L224.243 264.795C224.221 265.507 223.923 266.182 223.413 266.678C222.902 267.173 222.218 267.45 221.506 267.45H221.507ZM178.039 210.093C178.452 210.502 178.723 211.033 178.815 211.607C178.906 212.182 178.812 212.771 178.547 213.288L175.169 219.889C174.244 221.684 173.786 223.684 173.836 225.703C173.887 227.723 174.444 229.697 175.457 231.445L189.053 255.007C190.066 256.775 191.512 258.256 193.255 259.311C194.997 260.366 196.979 260.961 199.014 261.04L218.857 261.86L219.448 242.474L190.818 239.996C190.364 239.956 189.928 239.804 189.549 239.554C189.169 239.303 188.858 238.961 188.643 238.56C188.429 238.159 188.317 237.71 188.32 237.255C188.322 236.8 188.437 236.352 188.655 235.953L195.47 223.552C195.805 222.944 196.357 222.486 197.015 222.27C197.674 222.054 198.39 222.096 199.019 222.387L199.453 222.588L192.657 208.562L178.039 210.093Z" fill="#203529"/>
<path d="M193.538 254.993C193.337 254.993 193.138 254.948 192.956 254.862C192.773 254.775 192.613 254.648 192.485 254.491C191.674 253.44 191.031 252.268 190.578 251.017C189.575 248.208 189.883 245.607 191.465 243.495C191.683 243.204 192.007 243.012 192.366 242.962C192.724 242.912 193.087 243.008 193.376 243.228C193.664 243.448 193.854 243.775 193.904 244.137C193.954 244.498 193.859 244.865 193.641 245.156C191.161 248.465 194.55 252.7 194.59 252.742C194.755 252.944 194.859 253.188 194.891 253.447C194.922 253.706 194.881 253.968 194.771 254.204C194.66 254.44 194.486 254.639 194.268 254.779C194.05 254.919 193.797 254.993 193.538 254.993ZM242.189 270.45C241.759 270.45 241.334 270.347 240.95 270.15C240.566 269.953 240.234 269.667 239.981 269.315L225.52 249.227C225.191 248.769 225.009 248.219 225 247.654C224.991 247.088 225.155 246.533 225.47 246.065L239.541 225.109C239.856 224.638 240.309 224.278 240.835 224.078C241.362 223.877 241.937 223.845 242.482 223.988C243.027 224.13 243.515 224.439 243.879 224.872C244.243 225.305 244.466 225.841 244.516 226.406L245.015 232.013L252.374 231.858L240.927 207.145C240.632 206.508 240.589 205.781 240.809 205.113C241.028 204.446 241.492 203.888 242.106 203.555L263.833 191.778C264.15 191.605 264.499 191.499 264.858 191.463C265.217 191.428 265.579 191.464 265.924 191.571C266.268 191.678 266.589 191.853 266.866 192.085C267.144 192.318 267.373 192.604 267.54 192.926L277.992 213.089C279.367 215.722 280.057 218.665 279.997 221.641C279.936 224.617 279.127 227.529 277.645 230.103L264.092 253.788C262.636 256.347 260.564 258.495 258.069 260.033C255.574 261.572 252.736 262.453 249.815 262.594L244.997 262.836L244.917 267.742C244.906 268.464 244.613 269.153 244.103 269.66C243.593 270.166 242.905 270.45 242.189 270.45ZM231.059 247.554L239.671 259.514C239.818 258.949 240.14 258.445 240.59 258.077C241.04 257.709 241.595 257.494 242.174 257.466L249.543 257.095C251.553 256.997 253.506 256.392 255.223 255.333C256.94 254.274 258.365 252.796 259.368 251.036L272.926 227.35C273.946 225.579 274.503 223.575 274.545 221.527C274.587 219.479 274.112 217.454 273.166 215.641L263.986 197.944L246.969 207.172L259.1 233.357C259.293 233.772 259.379 234.229 259.352 234.687C259.325 235.144 259.185 235.587 258.945 235.977C258.706 236.366 258.373 236.688 257.979 236.915C257.584 237.142 257.139 237.266 256.685 237.275L242.584 237.575C241.893 237.59 241.223 237.339 240.708 236.874C240.193 236.408 239.873 235.763 239.811 235.069L239.768 234.589L231.059 247.554Z" fill="#203529"/>
<path d="M263.087 231.45C262.781 231.45 262.475 231.429 262.171 231.386C261.819 231.337 261.499 231.134 261.282 230.822C261.174 230.668 261.095 230.491 261.048 230.302C261.002 230.113 260.989 229.916 261.011 229.722C261.032 229.527 261.088 229.34 261.175 229.17C261.261 228.999 261.377 228.85 261.516 228.73C261.795 228.487 262.15 228.378 262.502 228.427C266.497 228.983 268.394 223.474 268.413 223.418C268.474 223.235 268.568 223.067 268.687 222.924C268.807 222.78 268.951 222.665 269.111 222.584C269.27 222.503 269.443 222.458 269.618 222.451C269.794 222.444 269.969 222.476 270.133 222.545C270.297 222.614 270.448 222.718 270.576 222.851C270.704 222.985 270.808 223.146 270.88 223.324C270.953 223.502 270.993 223.695 270.999 223.89C271.005 224.086 270.977 224.281 270.915 224.465C270.429 225.803 269.759 227.049 268.929 228.157C267.283 230.325 265.279 231.45 263.087 231.45Z" fill="#203529"/>
<path d="M209.964 275.311C230.534 275.507 246.995 280.657 258.166 291.837L258.685 292.357C269.471 303.333 274.347 318.689 274.169 337.466C274.071 347.687 272.026 357.642 268.064 367.296L268.058 367.312L268.051 367.327C263.999 377.043 257.987 385.1 250.008 391.364L250.007 391.363C241.817 397.887 232.018 401.004 220.944 400.898C217.419 400.865 214.098 400.434 211.231 399.348L211.053 399.281L210.88 399.202C208.549 398.145 206.359 396.835 204.312 395.283C204.233 395.226 204.155 395.175 204.082 395.124L203.864 395.654C198.203 413.451 190.642 428.21 181.029 439.708C171.207 451.457 159.665 458.037 146.469 457.911C135.271 457.804 126.186 453.48 120.242 444.586L120.212 444.539C114.779 436.24 112.239 426.518 112.343 415.645C112.407 408.888 113.564 402.405 115.835 396.235L115.836 396.235C118.097 389.951 121.301 384.63 125.618 380.551C128.928 377.314 132.757 375.153 137.016 374.249C136.297 373.38 135.615 372.452 134.976 371.461L134.958 371.432L134.94 371.403C130.45 364.268 128.395 355.884 128.484 346.533C128.609 333.404 132.088 321.31 138.933 310.387C145.792 299.442 155.404 290.831 167.581 284.534L167.592 284.528L167.604 284.523C180.021 278.168 194.197 275.16 209.964 275.311ZM181.63 367.262C179.186 371.67 175.827 375.38 171.631 378.371L171.574 378.411C166.96 381.619 161.648 383.127 155.88 383.072C153.973 383.053 152.147 382.852 150.405 382.476C150.374 385.983 151.323 388.372 152.888 390.147C154.466 391.803 156.337 392.639 158.92 392.663C161.792 392.691 165.82 391.036 171.063 385.389C174.897 381.148 178.458 375.174 181.63 367.262ZM219.418 317.388C220.005 317.761 220.569 318.19 221.102 318.682C224.083 321.435 225.056 325.166 225.022 328.721C225.005 330.548 224.745 332.434 224.309 334.347L224.275 334.501L224.231 334.654L222.074 342.242L222.075 342.243C220.263 348.68 219.135 352.855 218.624 354.944L218.779 354.996C218.172 356.956 217.956 358.385 217.947 359.366C217.945 359.506 217.949 359.627 217.955 359.731C218.376 359.824 219.019 359.91 219.942 359.919C221.808 359.937 223.742 359.344 225.869 357.737L225.912 357.704L225.956 357.673C228.117 356.101 230.112 353.672 231.792 350.053C233.369 346.655 234.288 342.39 234.338 337.087C234.415 329.009 232.235 324.335 229.013 321.624C226.797 319.759 223.678 318.271 219.418 317.388ZM203.602 316.794C196.716 317.498 191.115 319.444 186.613 322.432C181.346 325.927 178.555 331.04 178.481 338.732C178.463 340.667 178.852 341.954 179.372 342.849C179.406 342.899 179.438 342.942 179.466 342.979L183.662 343.019L184.806 347.486C185.3 349.413 185.667 351.386 185.65 353.177C185.639 354.28 185.551 355.378 185.397 356.472L186.256 353.823C187.102 351.047 188.299 347.209 189.844 342.316C191.009 338.523 192.042 335.207 192.943 332.37L193.803 329.683C195.072 325.616 197.004 321.955 199.948 319.284C201.077 318.26 202.301 317.431 203.602 316.794Z" fill="#203529" stroke="white" stroke-width="12"/>
<path d="M385.805 20.95C389.433 20.95 392.566 22.0562 394.737 24.6199C397.077 27.0362 397.956 30.657 397.956 34.8406C397.956 38.2161 397.412 41.7307 396.356 45.3738C395.473 48.7366 393.885 53.8706 391.61 60.7371C390.896 62.9776 389.756 66.589 388.19 71.5731L388.182 71.5965C386.627 76.3742 385.213 81.0643 383.941 85.6668C383.115 89.1635 382.729 92.0567 382.729 94.3807C382.729 97.5496 383.325 99.4941 384.13 100.605C384.936 101.552 385.865 101.976 387.092 101.976C388.618 101.976 391.036 100.817 394.424 97.1492C397.7 93.6026 401.463 88.1697 405.705 80.7479C406.193 79.7799 406.922 78.9696 407.902 78.4178C408.902 77.854 410.013 77.6424 411.113 77.6424C413.936 77.6425 416.362 78.897 418.322 81.0477C419.355 82.1814 420.097 83.4953 420.378 84.9871C420.66 86.4863 420.44 87.9731 419.856 89.3836L415.582 100.217C411.003 112.307 407.05 121.938 403.728 129.087C400.345 136.366 396.27 142.555 391.481 147.614L391.477 147.619C386.637 152.707 380.93 155.385 374.438 155.385C371.908 155.384 369.777 154.475 368.021 152.894C363.827 168.555 359.436 181.26 354.826 190.962C349.734 201.851 343.952 210.001 337.379 215.167C330.779 220.354 323.154 222.95 314.602 222.95C302.756 222.95 293.287 219.216 286.569 211.497V211.498C279.752 203.831 276.5 193.33 276.5 180.325C276.5 172.151 277.749 164.992 280.336 158.918L280.783 157.866C283.03 152.722 285.651 148.772 288.765 146.305C289.483 145.671 290.177 145.127 290.839 144.714C291.48 144.313 292.286 143.909 293.177 143.802C294.213 143.677 295.395 143.969 296.233 144.98C296.908 145.796 297.093 146.776 297.147 147.49C297.68 153.604 299.651 158.298 302.904 161.777C306.225 165.181 310.613 166.953 316.318 166.953C321.985 166.953 327.31 165.025 332.349 161.023L332.381 160.998L332.413 160.974C337.636 157.095 341.975 151.805 345.399 145.027C348.805 138.284 350.866 130.865 351.564 122.743V122.08C351.564 121.537 351.505 121.164 351.439 120.917C351.143 121.363 350.791 122.074 350.425 123.145C347.332 132.213 343.077 139.492 337.576 144.841L337.561 144.855L337.545 144.871C331.949 150.124 325.337 152.797 317.819 152.797C310.909 152.797 305.133 150.034 300.666 144.642C296.148 139.189 294.086 131.449 294.086 121.82C294.086 107.314 295.679 93.8137 298.883 81.3328L298.885 81.325L298.888 81.3162C304.049 61.7608 309.18 46.9671 314.312 37.0565L314.317 37.0467C319.512 27.1171 325.647 20.95 333.046 20.95C336.031 20.9501 338.526 22.18 340.136 24.6883C341.625 27.007 342.195 30.1658 342.195 33.8045C342.195 37.7702 341.748 41.6538 340.854 45.451C340.12 49.1616 338.888 54.1387 337.171 60.3572L337.166 60.3758L337.161 60.3934C335.451 66.2423 334.255 70.7503 333.559 73.9442C332.881 77.0523 332.543 80.1531 332.543 83.2488C332.543 87.0417 333.176 89.3686 334.043 90.6483C334.665 91.5653 336.014 92.3982 339.051 92.3983C342.981 92.3983 346.002 91.0979 348.343 88.5662C350.861 85.6662 353.08 81.2261 354.88 75.0428C359.464 57.418 364.091 44.1004 368.798 35.2225C373.439 26.4703 379.005 20.95 385.805 20.95Z" fill="#203529" stroke="white" stroke-width="5"/>
<path d="M269.1 69.95C276.31 69.95 282.196 71.8107 286.318 75.9324C290.322 79.9368 292.3 84.9891 292.3 90.9002C292.3 95.2274 291.434 99.0463 289.551 102.224L289.55 102.223C287.862 105.24 285.614 107.58 282.78 109.126C280.143 110.616 277.374 111.4 274.5 111.4C271.862 111.4 269.478 110.967 267.56 109.871L267.503 109.839L267.448 109.803C265.723 108.693 264.2 107.028 264.2 104.7C264.2 103.19 264.933 101.85 265.777 100.765C266.402 99.9619 266.855 99.2507 267.164 98.6317L267.217 98.5262L267.281 98.4246C267.414 98.2107 267.651 97.5697 267.651 96.1502C267.651 95.2686 267.383 94.6683 266.882 94.1678C266.536 93.8222 265.756 93.4002 264 93.4002C261.717 93.4002 259.85 94.3633 258.263 96.6609C256.695 98.9746 255.85 101.861 255.85 105.45C255.85 109.854 257.225 112.934 259.734 115.065L259.996 115.275C262.736 117.413 266.214 118.55 270.6 118.55C274.841 118.55 279.198 117.425 283.696 115.083C288.105 112.786 291.853 109.423 294.94 104.933H294.941C295.96 103.423 297.5 102.5 299.401 102.5C301.613 102.5 303.471 103.486 304.879 105.152C305.585 105.931 306.2 106.869 306.45 107.971C306.715 109.135 306.524 110.28 305.948 111.289C299.245 123.68 291.804 133.274 283.573 139.942L283.567 139.949L283.559 139.955C275.285 146.553 266.399 149.95 256.95 149.95C247.865 149.95 240.621 146.978 235.648 140.762L235.641 140.753L235.634 140.745C230.828 134.629 228.5 127.056 228.5 118.2C228.5 110.63 230.132 103.141 233.359 95.7498L233.365 95.7361L233.371 95.7225C236.624 88.5066 241.18 82.5253 247.046 77.826L247.617 77.3748C253.861 72.4303 261.053 69.9501 269.1 69.95Z" fill="#203529" stroke="white" stroke-width="5"/>
<path d="M206.3 69.95C213.349 69.95 219.103 71.8832 223.117 76.1336C226.997 80.2416 228.901 85.3751 228.901 91.3504C228.901 95.5306 227.712 99.5946 225.435 103.513C223.221 107.498 220.072 110.747 216.045 113.256L216.046 113.257C212.004 115.839 207.378 117.1 202.25 117.1C197.719 117.1 193.809 116.476 190.677 115.064C190.989 115.939 191.769 116.79 193.426 117.593C195.996 118.788 199.351 119.45 203.6 119.45C208.568 119.45 213.588 118.211 218.682 115.664C223.686 113.162 227.642 109.616 230.595 105.003L230.607 104.982L230.62 104.964C231.639 103.436 233.186 102.5 235.1 102.5C237.294 102.5 239.139 103.47 240.543 105.111L240.809 105.414C241.416 106.139 241.928 106.99 242.151 107.971C242.415 109.132 242.225 110.274 241.653 111.281L241.654 111.282C234.951 123.774 227.504 133.38 219.259 139.955L219.258 139.954C211.088 146.549 202.303 149.95 192.95 149.95C183.865 149.95 176.621 146.978 171.648 140.762L171.641 140.753L171.634 140.745C166.828 134.629 164.5 127.056 164.5 118.2C164.5 110.618 166.187 103.119 169.521 95.7225C172.887 88.2532 177.749 82.1135 184.1 77.3504C190.546 72.4151 197.978 69.9501 206.3 69.95ZM200.75 91.2996C198.515 91.2996 196.865 91.9546 195.595 93.1414C194.333 94.4133 193.8 95.7368 193.8 97.2C193.8 98.3597 194.155 99.1993 194.83 99.8924C195.417 100.408 196.462 100.85 198.35 100.85C200.476 100.85 202.011 100.204 203.183 99.032C204.62 97.5949 205.151 96.2505 205.151 94.95C205.151 93.7686 204.787 93.0166 204.161 92.4432L204.121 92.4061L204.082 92.368C203.479 91.7642 202.492 91.2996 200.75 91.2996Z" fill="#203529" stroke="white" stroke-width="5"/>
<path d="M110.667 252.844C111.808 252.066 113.363 252.36 114.141 253.501C117.429 258.322 121.399 260.495 126.149 260.495C127.53 260.495 128.649 261.614 128.649 262.995C128.649 264.375 127.53 265.495 126.149 265.495C119.489 265.495 114.076 262.277 110.011 256.318C109.233 255.178 109.526 253.622 110.667 252.844ZM107.321 12.95C128.09 12.95 144.105 17.9009 154.888 28.2518H154.887C165.777 38.5831 171.062 53.2242 171.062 71.7859C171.062 86.6955 168.279 99.4739 162.583 110.011C156.979 120.438 149.078 126.986 138.864 129.258L138.845 129.262L138.825 129.266C136.335 129.779 134.985 130.311 134.41 130.705L134.338 130.755L134.263 130.799C134.217 130.826 134.19 130.848 134.176 130.86C134.172 130.882 134.165 130.924 134.165 130.991C134.165 131.236 134.24 131.578 134.746 132.074C135.737 133.045 136.751 134.254 137.791 135.672C139.195 137.221 140.438 139.503 141.584 142.297L141.883 143.007C143.368 146.469 144.895 148.979 146.412 150.656C147.886 152.16 149.913 153.008 152.776 153.008C156.041 153.008 158.679 151.883 160.859 149.605C163.402 146.907 166.122 142.726 168.982 136.927C169.981 134.88 171.694 133.185 174.268 133.185C177.13 133.186 179.243 135.03 180.726 137.433L181.013 137.887C182.389 140.168 182.874 142.648 182.199 145.194L182.186 145.244L182.17 145.295C176.658 163.05 169.459 178.497 160.549 191.601C151.653 204.684 141.997 211.996 131.475 211.996C124.814 211.996 119.401 208.778 115.336 202.819L115.314 202.788L115.294 202.756C111.402 196.657 109.272 187.714 108.629 176.252L108.628 176.242V176.233L108.247 168.409V168.395L108.246 168.382C107.868 158.346 107.113 150.681 106.013 145.316C105.481 142.725 104.738 141.087 103.962 140.14C103.268 139.294 102.535 138.968 101.615 138.968C100.945 138.968 100.65 139.166 100.402 139.506C100.071 139.96 99.591 141.036 99.0996 143.057L99.0918 143.09L99.083 143.123C92.6886 166.624 84.0829 185.797 73.1973 200.548C62.3841 215.198 49.9268 222.95 35.8105 222.95C24.6999 222.95 16.1419 218.262 10.4736 208.972L10.4658 208.961L10.459 208.949C5.10998 199.963 2.50005 189.153 2.5 176.634C2.5 169.248 3.61724 162.118 5.85645 155.254C8.0983 148.382 11.2424 142.726 15.3604 138.396C19.5756 133.965 24.5823 131.621 30.2949 131.621L30.6045 131.63C32.0243 131.718 33.1878 132.415 34.0273 133.446C35.1132 134.453 35.6475 135.79 35.6475 137.251C35.6475 142.515 37.0298 146.598 39.6113 149.709C42.1829 152.638 45.2995 154.051 49.124 154.051C54.2912 154.05 59.5823 151.016 64.958 143.894C70.3249 136.784 75.4939 125.945 80.3984 111.21L82.4756 103.96C83.3656 100.648 84.6321 96.0446 86.2744 90.1541C87.9222 84.0706 89.3187 79.0225 90.4629 75.0125C91.667 70.6205 93.4237 67.0507 95.8906 64.5525C98.4291 61.9818 101.594 60.6785 105.229 60.6785C108.589 60.6786 111.569 61.5135 113.693 63.6209C115.822 65.7323 116.668 68.7003 116.668 72.0467C116.668 73.8095 116.454 75.715 116.049 77.7508L116.037 77.8133L116.021 77.8758C112.738 90.8654 110.884 99.8896 110.388 105.077C110.336 106.383 110.431 107.305 110.594 107.92C110.674 108.223 110.761 108.414 110.827 108.525C110.859 108.579 110.885 108.613 110.901 108.632C110.917 108.65 110.926 108.658 110.928 108.659C111.394 109.014 112.597 109.451 115.119 109.451C118.393 109.451 121.515 108.312 124.54 105.863C127.613 103.202 130.122 99.6371 132.021 95.0799L132.024 95.0691L132.029 95.0594C134.038 90.36 135.061 85.1345 135.061 79.3494C135.061 69.7717 132.194 63.3502 126.941 59.448L126.885 59.4051C121.505 55.1666 113.939 52.8992 103.897 52.8992C96.2586 52.8992 89.7899 54.4767 84.3994 57.5301C78.9082 60.6404 74.8101 64.6007 72.0137 69.3943C69.1815 74.2491 67.79 79.2945 67.79 84.5662C67.7901 87.6958 68.4137 90.1911 69.5352 92.1619C70.624 93.9077 71.6275 94.324 72.5166 94.324H74.4814L74.9463 96.2332C75.4705 98.3899 75.7773 100.267 75.7773 101.779C75.7773 106.392 74.5848 111.106 72.3008 115.896C69.9815 120.761 66.699 124.886 62.4727 128.252L62.4609 128.261L62.4492 128.27C58.1827 131.586 53.1981 133.23 47.6025 133.23C39.1582 133.23 32.5527 129.215 27.9629 121.586L27.9561 121.574L27.9482 121.562C23.4944 113.974 21.3281 104.908 21.3281 94.4764C21.3282 81.3122 24.8844 68.4618 31.9199 55.9549L31.9297 55.9373C39.1233 43.382 49.2537 33.0886 62.2646 25.0594L62.2744 25.0535L63.5205 24.3074C76.4497 16.7208 91.0722 12.95 107.321 12.95Z" fill="#203529" stroke="white" stroke-width="5" stroke-linecap="round"/>
<path d="M33.7185 39.5C40.6921 28.7083 50.5184 19.8437 63.1976 12.9062C76.0036 5.96875 90.5847 2.5 106.941 2.5C127.354 2.5 142.633 6.81667 152.776 15.45" stroke="#203529" stroke-width="5" stroke-linecap="round"/>
<path d="M141.701 230.95C150.697 230.95 157.886 233.929 162.853 240.138H162.852C167.729 246.134 170.001 254.365 170.001 264.5C170.001 276.16 167.472 288.51 162.488 301.533L162.489 301.534C157.589 314.497 150.926 325.441 142.469 334.313L142.47 334.314C134.027 343.279 124.658 348 114.401 348C108.925 348 103.732 346.515 98.864 343.594L98.8474 343.584L98.8298 343.573C93.8603 340.481 89.9218 335.838 86.9568 329.803L86.949 329.787C83.9435 323.561 82.5008 316.066 82.5007 307.4C82.5007 299.245 83.7399 290.863 86.197 282.263L86.2 282.254L86.2019 282.245C88.746 273.595 91.8303 266.362 95.4919 260.608L95.4978 260.597L95.5046 260.588C99.611 254.27 104.575 250.45 110.501 250.45C111.46 250.45 112.39 250.555 113.271 250.782C115.434 245.437 118.617 240.954 122.838 237.389C127.953 233.054 134.301 230.95 141.701 230.95ZM135.85 260.1C133.838 260.1 132.497 260.65 131.556 261.528L131.552 261.532C130.715 262.309 130.251 263.318 130.251 264.8C130.251 266.186 130.636 267.098 131.244 267.761C131.817 268.386 132.569 268.75 133.751 268.75C136.116 268.75 138.249 269.563 139.717 271.445C141.171 273.086 141.801 275.151 141.801 277.4C141.8 280.863 140.54 283.953 138.15 286.582C135.578 289.411 132.044 290.7 127.901 290.7C123.367 290.7 119.528 288.928 116.557 285.482L116.544 285.467L116.53 285.45C115.197 283.85 114.084 282.054 113.177 280.076C112.858 281.109 112.573 282.119 112.326 283.106L112.324 283.116L112.321 283.125C111.585 285.977 111.201 289.311 111.201 293.15C111.201 299.033 112.252 302.997 113.969 305.434C115.575 307.711 117.971 308.95 121.6 308.95C125.615 308.95 129.397 307.475 133.005 304.318L133.016 304.308L133.027 304.299C136.808 301.071 139.843 296.892 142.109 291.7C144.381 286.395 145.501 281.083 145.501 275.75C145.501 269.982 144.43 266.108 142.684 263.728L142.657 263.691L142.631 263.652C141.004 261.251 138.836 260.1 135.85 260.1Z" fill="#203529" stroke="white" stroke-width="5"/>
</svg>
